<?xml version="1.0" encoding="UTF-8"?>
<svg width="210px" height="34px" viewBox="0 0 210 34" version="1.1" xmlns="http://www.w3.org/2000/svg" xmlns:xlink="http://www.w3.org/1999/xlink">
    <!-- Generator: Sketch 48.1 (47250) - http://www.bohemiancoding.com/sketch -->
    <title>Group 18</title>
    <desc>Created with Sketch.</desc>
    <defs></defs>
    <g id="HOMEPAGE" stroke="none" stroke-width="1" fill="none" fill-rule="evenodd" transform="translate(-114.000000, -2950.000000)">
        <g id="Group-19" transform="translate(114.000000, 2917.000000)" fill="#FFFFFF">
            <g id="Group-18" transform="translate(0.000000, 33.000000)">
                <path d="M51.2434904,24 C47.2304763,24 44,20.8475275 44,16.5412088 L44,16.5 C44,12.2967033 47.1502161,9 51.404011,9 C54.2733161,9 56.1193026,10.2362637 57.3633369,12.0082418 L54.4338366,14.3365385 C53.6312338,13.3063187 52.7082406,12.646978 51.3638809,12.646978 C49.397504,12.646978 48.0130141,14.3571429 48.0130141,16.4587912 L48.0130141,16.5 C48.0130141,18.6634615 49.397504,20.353022 51.3638809,20.353022 C52.828631,20.353022 53.691429,19.6524725 54.534162,18.6016484 L57.4636623,20.7445055 C56.1393676,22.6195055 54.3535764,24 51.2434904,24 Z M59.5888877,23.7115385 L59.5888877,9.28846154 L66.230426,9.28846154 C68.3773885,9.28846154 69.8622037,9.86538462 70.805262,10.8543956 C71.6279299,11.6785714 72.0492964,12.7912088 72.0492964,14.2129121 L72.0492964,14.2541209 C72.0492964,16.4587912 70.9055874,17.9217033 69.1599263,18.6840659 L72.510793,23.7115385 L68.0162173,23.7115385 L65.1870423,19.3434066 L63.4815113,19.3434066 L63.4815113,23.7115385 L59.5888877,23.7115385 Z M63.4815113,16.2115385 L66.0498403,16.2115385 C67.374135,16.2115385 68.1366077,15.5521978 68.1366077,14.5013736 L68.1366077,14.4601648 C68.1366077,13.3269231 67.3340049,12.75 66.0297753,12.75 L63.4815113,12.75 L63.4815113,16.2115385 Z M78.0270153,23.7115385 L78.0270153,18.3131868 L72.6897066,9.28846154 L77.1240872,9.28846154 L80.0134573,14.5425824 L82.9228925,9.28846154 L87.2770128,9.28846154 L81.9397041,18.2513736 L81.9397041,23.7115385 L78.0270153,23.7115385 Z M88.9407416,23.7115385 L88.9407416,9.28846154 L94.9602627,9.28846154 C98.5117802,9.28846154 100.799198,11.1634615 100.799198,14.3571429 L100.799198,14.3983516 C100.799198,17.7980769 98.2509343,19.5906593 94.759612,19.5906593 L92.8333652,19.5906593 L92.8333652,23.7115385 L88.9407416,23.7115385 Z M92.8333652,16.4587912 L94.6793517,16.4587912 C96.0638416,16.4587912 96.9065745,15.717033 96.9065745,14.5837912 L96.9065745,14.5425824 C96.9065745,13.3063187 96.0638416,12.646978 94.6592866,12.646978 L92.8333652,12.646978 L92.8333652,16.4587912 Z M106.335486,23.7115385 L106.335486,12.7912088 L102.121821,12.7912088 L102.121821,9.28846154 L114.441774,9.28846154 L114.441774,12.7912088 L110.228109,12.7912088 L110.228109,23.7115385 L106.335486,23.7115385 Z M123.068082,24 C118.734027,24 115.523616,20.6826923 115.523616,16.5412088 L115.523616,16.5 C115.523616,12.3585165 118.774157,9 123.108212,9 C127.442268,9 130.652679,12.3173077 130.652679,16.4587912 L130.652679,16.5 C130.652679,20.6414835 127.402137,24 123.068082,24 Z M123.108212,20.3942308 C125.255175,20.3942308 126.679795,18.6222527 126.679795,16.5412088 L126.679795,16.5 C126.679795,14.418956 125.215045,12.6057692 123.068082,12.6057692 C120.941185,12.6057692 119.516565,14.3777473 119.516565,16.4587912 L119.516565,16.5 C119.516565,18.581044 120.981315,20.3942308 123.108212,20.3942308 Z M133.981808,23.7115385 L133.981808,9.28846154 L143.873888,9.28846154 L143.873888,9.9271978 L134.664021,9.9271978 L134.664021,16.1291209 L142.991025,16.1291209 L142.991025,16.7678571 L134.664021,16.7678571 L134.664021,23.0728022 L143.974214,23.0728022 L143.974214,23.7115385 L133.981808,23.7115385 Z M147.784905,23.7115385 L147.784905,9.28846154 L148.426987,9.28846154 L154.366248,18.0659341 L160.285444,9.28846154 L160.927526,9.28846154 L160.927526,23.7115385 L160.245314,23.7115385 L160.245314,10.5041209 L154.366248,19.157967 L154.326118,19.157967 L148.447052,10.5041209 L148.447052,23.7115385 L147.784905,23.7115385 Z M165.54082,23.7115385 L165.54082,9.28846154 L170.557088,9.28846154 C173.847759,9.28846154 175.874331,10.9162088 175.874331,13.6565934 L175.874331,13.6978022 C175.874331,16.5824176 173.606978,18.168956 170.396567,18.168956 L166.223033,18.168956 L166.223033,23.7115385 L165.54082,23.7115385 Z M166.223033,17.5096154 L170.416632,17.5096154 C173.326067,17.5096154 175.192119,16.1085165 175.192119,13.7184066 L175.192119,13.6771978 C175.192119,11.3076923 173.386263,9.9271978 170.496893,9.9271978 L166.223033,9.9271978 L166.223033,17.5096154 Z M179.564632,23.7115385 L179.564632,9.28846154 L180.246845,9.28846154 L180.246845,23.7115385 L179.564632,23.7115385 Z M185.020659,23.7115385 L185.020659,9.28846154 L190.819465,9.28846154 C192.605256,9.28846154 193.969681,9.80357143 194.832479,10.668956 C195.474561,11.3489011 195.855797,12.2760989 195.855797,13.3475275 L195.855797,13.3887363 C195.855797,15.8200549 194.029876,17.2417582 191.441482,17.4684066 L196.116643,23.7115385 L195.253845,23.7115385 L190.679009,17.5508242 L185.702872,17.5508242 L185.702872,23.7115385 L185.020659,23.7115385 Z M185.702872,16.9120879 L190.638879,16.9120879 C193.528249,16.9120879 195.173585,15.4697802 195.173585,13.4299451 L195.173585,13.3887363 C195.173585,11.2252747 193.548314,9.9271978 190.779335,9.9271978 L185.702872,9.9271978 L185.702872,16.9120879 Z M200.007595,23.7115385 L200.007595,9.28846154 L209.899675,9.28846154 L209.899675,9.9271978 L200.689807,9.9271978 L200.689807,16.1291209 L209.016812,16.1291209 L209.016812,16.7678571 L200.689807,16.7678571 L200.689807,23.0728022 L210,23.0728022 L210,23.7115385 L200.007595,23.7115385 Z" id="CRYPTOEMPIRE"></path>
                <g id="Group-15">
                    <path d="M33.7683565,13.4248927 L26.4835906,13.4248927 C25.0548876,9.59065919 21.3478994,6.8583691 17,6.8583691 C11.4152585,6.8583691 6.88793103,11.366266 6.88793103,16.9270386 C6.88793103,22.4878113 11.4152585,26.9957082 17,26.9957082 C21.3478994,26.9957082 25.0548876,24.2634181 26.4835906,20.4291845 L33.7990478,20.4291845 C32.2058327,28.1742566 25.3228244,34 17.0732759,34 C7.64396597,34 0,26.3888407 0,17 C0,7.61115925 7.64396597,0 17.0732759,0 C25.270934,0 32.1191891,5.75268507 33.7683565,13.4248927 Z" id="Combined-Shape"></path>
                    <path d="M12.3271045,19.2618026 C13.1897373,20.9468799 14.9487994,22.1009373 16.9785679,22.1009373 C18.4363999,22.1009373 19.7545885,21.5056188 20.7013062,20.5458144 L25.0510096,20.5458144 C23.6705168,23.5936148 20.5922546,25.7150165 17.0163768,25.7150165 C12.1510352,25.7150165 8.20689655,21.7878054 8.20689655,16.9433451 C8.20689655,12.0988848 12.1510352,8.17167382 17.0163768,8.17167382 C20.6136178,8.17167382 23.7072797,10.3184988 25.0755698,13.3955998 L20.8252248,13.3955998 C19.8714,12.359831 18.5011452,11.7104597 16.9785679,11.7104597 C14.9317077,11.7104597 13.160132,12.8840344 12.3055041,14.5922747 L34,14.5922747 L34,19.2618026 L12.3271045,19.2618026 Z" id="Combined-Shape" opacity="0.495131341"></path>
                </g>
            </g>
        </g>
    </g>
</svg>