<?xml version="1.0" encoding="UTF-8"?>
<svg width="36px" height="36px" viewBox="0 0 36 36" version="1.1" xmlns="http://www.w3.org/2000/svg" xmlns:xlink="http://www.w3.org/1999/xlink">
    <!-- Generator: Sketch 48.1 (47250) - http://www.bohemiancoding.com/sketch -->
    <title>Group 23</title>
    <desc>Created with Sketch.</desc>
    <defs>
        <polygon id="path-1" points="0 0 8 0 8 18 0 18"></polygon>
    </defs>
    <g id="HOMEPAGE" stroke="none" stroke-width="1" fill="none" fill-rule="evenodd" transform="translate(-924.000000, -2723.000000)">
        <g id="Group-23" transform="translate(924.000000, 2723.000000)">
            <circle id="Oval-8" fill="#43355D" cx="18" cy="18" r="18"></circle>
            <g id="facebook-letter-logo" opacity="0.3" transform="translate(14.000000, 10.000000)">
                <mask id="mask-2" fill="white">
                    <use xlink:href="#path-1"></use>
                </mask>
                <g id="Clip-2"></g>
                <path d="M1.72894471,3.48625 L1.72894471,5.96375 L0,5.96375 L0,8.994 L1.72894471,8.994 L1.72894471,18 L5.28063806,18 L5.28063806,8.995 L7.66406762,8.995 C7.66406762,8.995 7.88738766,7.542 7.9961907,5.953 L5.29444676,5.953 L5.29444676,3.88075 C5.29444676,3.57125 5.68132849,3.15525 6.06463901,3.15525 L8,3.15525 L8,0 L5.36801381,0 C1.64156895,0 1.72894471,3.03325 1.72894471,3.48625 Z" id="Fill-1" fill="#FFFFFF" mask="url(#mask-2)"></path>
            </g>
        </g>
    </g>
</svg>