<?xml version="1.0" encoding="UTF-8"?>
<svg width="36px" height="36px" viewBox="0 0 36 36" version="1.1" xmlns="http://www.w3.org/2000/svg" xmlns:xlink="http://www.w3.org/1999/xlink">
    <!-- Generator: Sketch 48.1 (47250) - http://www.bohemiancoding.com/sketch -->
    <title>Group 25</title>
    <desc>Created with Sketch.</desc>
    <defs>
        <polygon id="path-1" points="0.00283911672 0.00976415094 14.9957413 0.00976415094 14.9957413 14.9971698 0.00283911672 14.9971698"></polygon>
    </defs>
    <g id="HOMEPAGE" stroke="none" stroke-width="1" fill="none" fill-rule="evenodd" transform="translate(-1004.000000, -2723.000000)">
        <g id="Group-25" transform="translate(1004.000000, 2723.000000)">
            <circle id="Oval-8" fill="#43355D" cx="18" cy="18" r="18"></circle>
            <g id="google-plus-2" opacity="0.3" transform="translate(7.000000, 11.000000)">
                <g id="Group-3">
                    <mask id="mask-2" fill="white">
                        <use xlink:href="#path-1"></use>
                    </mask>
                    <g id="Clip-2"></g>
                    <path d="M14.8704416,9.04556604 C14.2856309,12.9180189 11.3616719,15 7.60230284,15 C3.38342271,15 0,11.7104717 0,7.50490566 C0,3.29929245 3.38342271,0.00976415094 7.60230284,0.00976415094 C9.6490694,0.00976415094 11.4452366,0.592735849 12.7401104,1.84188679 L10.5262618,4.04882075 C9.81615142,3.29929245 8.77187697,2.9245283 7.60230284,2.9245283 C5.09607256,2.9245283 2.92395899,5.00650943 2.92395899,7.50490566 C2.92395899,10.0032547 5.09607256,12.0852358 7.60230284,12.0852358 C9.69085174,12.0852358 11.2781546,10.752783 11.7376183,8.7540566 L7.51878549,8.7540566 L7.51878549,5.83929245 L14.8704416,5.83929245 C14.9540063,6.33896226 14.9957413,6.96358491 14.9957413,7.50490566 C14.9957413,8.04617925 14.9540063,8.54589623 14.8704416,9.04556604" id="Fill-1" fill="#FFFFFF" mask="url(#mask-2)"></path>
                </g>
                <polyline id="Fill-4" fill="#FFFFFF" points="23 6.88233413 20.8823341 6.88233413 20.8823341 9 19.1176659 9 19.1176659 6.88233413 17 6.88233413 17 5.11762589 19.1176659 5.11762589 19.1176659 3 20.8823341 3 20.8823341 5.11762589 23 5.11762589 23 6.88233413"></polyline>
            </g>
        </g>
    </g>
</svg>