<?xml version="1.0" encoding="UTF-8"?>
<svg width="36px" height="36px" viewBox="0 0 36 36" version="1.1" xmlns="http://www.w3.org/2000/svg" xmlns:xlink="http://www.w3.org/1999/xlink">
    <!-- Generator: Sketch 48.1 (47250) - http://www.bohemiancoding.com/sketch -->
    <title>Group 17</title>
    <desc>Created with Sketch.</desc>
    <defs></defs>
    <g id="HOMEPAGE" stroke="none" stroke-width="1" fill="none" fill-rule="evenodd" transform="translate(-884.000000, -2723.000000)">
        <g id="Group-17" transform="translate(884.000000, 2723.000000)">
            <circle id="Oval-8" fill="#43355D" cx="18" cy="18" r="18"></circle>
            <g id="linkedin-letters" opacity="0.300000012" transform="translate(10.000000, 11.000000)" fill="#FFFFFF">
                <polygon id="Fill-1" points="0 15 4 15 4 5 0 5"></polygon>
                <path d="M14.9654067,6.11960173 C14.2753725,5.37299882 13.3630618,5 12.2287799,5 C11.8114008,5 11.4315767,5.05084284 11.0897655,5.15252852 C10.748107,5.25481948 10.4594223,5.39781497 10.2238642,5.58166631 C9.98830606,5.76612293 9.80114191,5.93696093 9.66160845,6.09478558 C9.52925012,6.24428775 9.39979238,6.41860606 9.27399853,6.61607602 L9.27399853,5.2263717 L6,5.2263717 L6.01022838,5.69984566 C6.01679287,6.01549496 6.01969345,6.98846957 6.01969345,8.61922344 C6.01969345,10.2499773 6.01312897,12.3767515 6,15 L9.27399853,15 L9.27399853,9.54604606 C9.27399853,9.21087674 9.31033219,8.94485973 9.38315217,8.74754108 C9.52268564,8.41176649 9.73305447,8.13107163 10.0151746,7.90409466 C10.2972948,7.6771177 10.6467391,7.56362921 11.0647289,7.56362921 C11.635381,7.56362921 12.0547447,7.75928336 12.3235833,8.15044034 C12.5919638,8.54174863 12.7267648,9.08271041 12.7267648,9.77302303 L12.7267648,15 L16,15 L16,9.39835971 C16,7.95841782 15.6552882,6.86544805 14.9654067,6.11960173 Z" id="Fill-2"></path>
                <path d="M2.01092822,0 C1.41237647,0 0.927763503,0.18933106 0.556425912,0.567275338 C0.185254171,0.945757997 0,1.42312351 0,2.00008973 C0,2.56933914 0.180112829,3.04526897 0.540338487,3.42734084 C0.900564144,3.80941271 1.37671878,4 1.96747559,4 L1.98887021,4 C2.59471934,4 3.08248346,3.80941271 3.4536552,3.42734084 C3.82482694,3.04526897 4.00692997,2.56933914 3.99979843,2.00008973 C3.99266689,1.42312351 3.80873952,0.945757997 3.44851386,0.567275338 C3.0882882,0.18933106 2.60881657,0 2.01092822,0 Z" id="Fill-3"></path>
            </g>
        </g>
    </g>
</svg>