<?xml version="1.0" encoding="UTF-8"?>
<svg width="31px" height="31px" viewBox="0 0 31 31" version="1.1" xmlns="http://www.w3.org/2000/svg" xmlns:xlink="http://www.w3.org/1999/xlink">
    <!-- Generator: Sketch 48.1 (47250) - http://www.bohemiancoding.com/sketch -->
    <title>Group 12</title>
    <desc>Created with Sketch.</desc>
    <defs>
        <linearGradient x1="0%" y1="0%" x2="94.4270289%" y2="100%" id="linearGradient-1">
            <stop stop-color="#CC416B" offset="0%"></stop>
            <stop stop-color="#FF007D" offset="100%"></stop>
        </linearGradient>
        <polygon id="path-2" points="0 11 0 0 13 0 13 11"></polygon>
    </defs>
    <g id="HOMEPAGE" stroke="none" stroke-width="1" fill="none" fill-rule="evenodd" transform="translate(-346.000000, -878.000000)">
        <g id="Group-12" transform="translate(346.000000, 878.000000)">
            <circle id="Oval-3" fill="url(#linearGradient-1)" cx="15.5" cy="15.5" r="15.5"></circle>
            <g id="left-arrow" transform="translate(15.500000, 15.500000) scale(-1, 1) translate(-15.500000, -15.500000) translate(9.000000, 10.000000)">
                <mask id="mask-3" fill="white">
                    <use xlink:href="#path-2"></use>
                </mask>
                <g id="Clip-2"></g>
                <path d="M12.2895449,4.46598083 L3.59053863,4.46598083 L6.32518845,1.6739622 C6.45909899,1.53765062 6.53255425,1.35299472 6.53255425,1.15918679 C6.53255425,0.965378855 6.45909899,0.782015015 6.32518845,0.645380421 L5.89967634,0.211681333 C5.76587149,0.0753697523 5.58757072,0 5.39743255,0 C5.20718869,0 5.02878222,0.0748313969 4.89497738,0.211142977 L0.207262949,4.98624747 C0.072929645,5.1230974 -0.000525623562,5.30538453 2.83160714e-06,5.49930014 C-0.000525623562,5.69429245 0.072929645,5.87668725 0.207262949,6.01332185 L4.89497738,10.788857 C5.02878222,10.9250609 5.207083,11 5.39743255,11 C5.58757072,11 5.76587149,10.9249533 5.89967634,10.788857 L6.32518845,10.3551579 C6.45909899,10.2190617 6.53255425,10.0373129 6.53255425,9.84350499 C6.53255425,9.64980472 6.45909899,9.47763868 6.32518845,9.34143477 L3.55967685,6.53380382 L12.2789758,6.53380382 C12.6707724,6.53380382 13,6.18979474 13,5.79087341 L13,5.1774713 C13,4.77854996 12.6610489,4.46145865 12.2692522,4.46145865" id="Fill-1" fill="#FFFFFF" mask="url(#mask-3)"></path>
            </g>
        </g>
    </g>
</svg>