<?xml version="1.0" encoding="UTF-8"?>
<svg width="36px" height="36px" viewBox="0 0 36 36" version="1.1" xmlns="http://www.w3.org/2000/svg" xmlns:xlink="http://www.w3.org/1999/xlink">
    <!-- Generator: Sketch 48.1 (47250) - http://www.bohemiancoding.com/sketch -->
    <title>Group 24</title>
    <desc>Created with Sketch.</desc>
    <defs></defs>
    <g id="HOMEPAGE" stroke="none" stroke-width="1" fill="none" fill-rule="evenodd" transform="translate(-964.000000, -2723.000000)">
        <g id="Group-24" transform="translate(964.000000, 2723.000000)">
            <circle id="Oval-8" fill="#43355D" cx="18" cy="18" r="18"></circle>
            <path d="M27,13.7743797 C26.3405203,14.0744374 25.6262011,14.2821696 24.8795407,14.3730525 C25.6430748,13.9042123 26.2252168,13.161281 26.5050387,12.2755338 C25.7907195,12.7097519 25.0004687,13.025678 24.1539723,13.1944605 C23.4846496,12.4616272 22.5228498,12 21.4626201,12 C19.425123,12 17.7715022,13.6964801 17.7715022,15.7867859 C17.7715022,16.085401 17.8052496,16.3724755 17.8657136,16.6494518 C14.7947035,16.4907675 12.0766346,14.9861512 10.2528709,12.6924409 C9.93367706,13.2507213 9.75228498,13.9042123 9.75228498,14.5980958 C9.75228498,15.9108482 10.4061401,17.0721293 11.3946567,17.7472591 C10.7900164,17.7313907 10.2247481,17.5568379 9.72556831,17.2740912 L9.72556831,17.3202539 C9.72556831,19.1566647 10.9995313,20.6886901 12.6854933,21.0392383 C12.3775486,21.1229083 12.0485118,21.1676284 11.7138505,21.1676284 C11.4776189,21.1676284 11.247012,21.1459896 11.016405,21.1012695 C11.4888681,22.6058857 12.8500117,23.6979227 14.4656667,23.7325447 C13.2015468,24.7466821 11.60839,25.3496826 9.87883759,25.3496826 C9.58214202,25.3496826 9.29107101,25.3323716 9,25.2991922 C10.6367471,26.3753606 12.5758144,27 14.6625264,27 C21.451371,27 25.1649871,21.2296595 25.1649871,16.2267744 L25.153738,15.7362954 C25.8793063,15.2010964 26.5050387,14.5360646 27,13.7743797 Z" id="twitter-logo-silhouette" fill="#FFFFFF" opacity="0.3"></path>
        </g>
    </g>
</svg>